# xmcd CD database file
#
# Track frame offsets:
#	150
#	21360
#	40465
#	62428
#	83196
#	104134
#	123443
#	141909
#	153863
#	171610
#
# Disc length: 2508 seconds
#
# Revision: 0
# Processed by: cddbd v1.4PL0 Copyright (c) Steve Scherf et al.
# Submitted via: CDex 1.51
#
DISCID=8d09ca0a
DTITLE=Various Artist - LoveBOSSAStyle Smooth Jazz
DYEAR=2000
DGENRE=Jazz
TTITLE0=Shakatak - Haze
TTITLE1=Joe Fuentes - Elegancias
TTITLE2=Bill Sharpe - My Blue Heart
TTITLE3=Sambada - Livewire
TTITLE4=Duncan Millar - Smokee Vibes
TTITLE5=Martin Fuss - The Major Step
TTITLE6=Remiscence Quartet - Saudade
TTITLE7=Exodus Quartet - Corcovado
TTITLE8=Brian tarquin - Tabatha
TTITLE9=No Se - Das Land
EXTD=YEAR: 2000
EXTT0=
EXTT1=
EXTT2=
EXTT3=
EXTT4=
EXTT5=
EXTT6=
EXTT7=
EXTT8=
EXTT9=
PLAYORDER=
